:SAMPLES-PER-SECOND 30
:FULLY-SPECIFIED
:DEGREES
271
root  -3.82976 37.2845 1.31587 -172.236 -4.89714 171.386
RightUpLeg  -25.9137 -15.4679 -26.9918
RightLeg  21.7588 -12.0717 -5.49761
RightFoot  14.548 -6.18393 26.9105
RightToes  -5.8209e-011 0 -3.6325e-017
Spine  16.8835 -3.73921 0.657236
Spine1  14.7595 -4.86125 2.99737
HEad  -23.6936 -6.00907 -1.01865
LeftShoulder1  1.2397 -1.93539 -16.0291
LeftArm  21.3507 11.7529 -57.9708
LeftForeArm  84.9515 -79.3275 -96.3163
LeftHand  -0.48708 -0.165846 10.252
RightShoulder  0.434053 -1.52296 15.3304
RightArm  -26.2168 2.07829 43.2468
RightForeArm  11.4829 73.352 42.8278
RightHand  -1.23101 2.26453 -18.7423
LeftUpLeg  -15.2994 4.43035 6.61691
LeftLeg  35.6878 -12.5587 -9.20204
LeftFoot  -15.6977 -0.797132 -22.9446
LeftToes  -3.91115e-011 -2.2622e-010 9.51032e-012
272
root  -4.27903 37.8311 1.49135 -172.422 -3.13087 172.284
RightUpLeg  -23.4769 -17.1938 -25.4669
RightLeg  13.4508 -11.1633 -3.67071
RightFoot  21.5301 -7.60164 25.9105
RightToes  -5.8209e-011 0 -3.6325e-017
Spine  15.3904 -3.24063 -1.18278
Spine1  15.3118 -5.08274 4.40867
HEad  -22.7938 -4.98496 -1.89147
LeftShoulder1  1.08552 -1.23922 -16.1317
LeftArm  21.1414 12.1068 -58.633
LeftForeArm  92.6291 -79.2483 -102
LeftHand  -0.590203 -0.611205 11.5326
RightShoulder  0.544931 -1.28079 18.1787
RightArm  -24.5095 -3.38019 46.1897
RightForeArm  18.4991 75.0643 49.4819
RightHand  -1.07928 1.91096 -17.2455
LeftUpLeg  -13.3536 6.46973 3.82101
LeftLeg  32.9946 -6.7156 -4.35301
LeftFoot  -14.6619 -0.401131 -16.8567
LeftToes  -3.91115e-011 -2.2622e-010 9.51032e-012
273
root  -4.74885 38.0848 1.69677 -172.812 -0.112625 173.435
RightUpLeg  -22.1012 -18.6325 -23.4607
RightLeg  6.02099 -6.55588 -1.84858
RightFoot  27.1825 -8.70544 25.129
RightToes  -5.8209e-011 0 -3.6325e-017
Spine  14.3012 -2.43953 -3.29677
Spine1  15.4347 -4.89692 5.72729
HEad  -22.4922 -3.11683 -2.81764
LeftShoulder1  0.91698 -0.470999 -16.3172
LeftArm  20.2894 12.6825 -59.0535
LeftForeArm  101.854 -78.8222 -110.489
LeftHand  -0.688779 -0.980424 12.6822
RightShoulder  0.616361 -1.10928 19.4872
RightArm  -23.0028 -6.92 48.1327
RightForeArm  26.2671 76.4284 56.9408
RightHand  -0.934539 1.41787 -16.0262
LeftUpLeg  -11.7368 8.00268 2.28624
LeftLeg  30.9447 1.13784 1.12442
LeftFoot  -14.8278 -0.293868 -12.5748
LeftToes  -3.91115e-011 -2.2622e-010 9.51032e-012
274
root  -5.1945 38.0451 1.99399 -173.976 2.81908 174.649
RightUpLeg  -21.1472 -17.6303 -22.3555
RightLeg  3.11232 -1.89798 -1.16211
RightFoot  27.8372 -8.89772 25.2306
RightToes  -5.8209e-011 0 -3.6325e-017
Spine  13.631 -1.77504 -5.14375
Spine1  16.3293 -4.72618 6.57312
HEad  -22.6656 -0.52846 -3.092
LeftShoulder1  0.798267 0.0215022 -16.1547
LeftArm  18.9317 12.3273 -58.9996
LeftForeArm  107.564 -78.2818 -116.681
LeftHand  -0.77725 -1.29221 13.6468
RightShoulder  0.680652 -0.836905 19.2322
RightArm  -21.5171 -8.12516 49.8127
RightForeArm  31.741 77.2231 63.4878
RightHand  -0.849851 0.965436 -15.6063
LeftUpLeg  -10.3831 7.22935 2.0893
LeftLeg  30.9611 6.20502 4.37787
LeftFoot  -16.3186 -0.460994 -12.7041
LeftToes  -3.91115e-011 -2.2622e-010 9.51032e-012
275
root  -5.5837 37.902 2.37402 -175.568 4.89374 175.467
RightUpLeg  -20.6438 -16.0456 -22.0614
RightLeg  5.86035 -0.20252 -1.22157
RightFoot  23.2416 -8.04286 25.9946
RightToes  -5.8209e-011 0 -3.6325e-017
Spine  13.2944 -1.36774 -6.52542
Spine1  17.8459 -4.66893 6.67696
HEad  -22.8166 1.84562 -2.68823
LeftShoulder1  0.777413 0.036584 -15.6154
LeftArm  16.8879 10.7567 -58.6271
LeftForeArm  105.812 -78.4019 -115.191
LeftHand  -0.833277 -1.52203 14.1449
RightShoulder  0.718246 -0.576616 18.1188
RightArm  -19.9659 -7.23235 51.2619
RightForeArm  32.9958 77.5358 68.1223
RightHand  -0.883077 0.801345 -16.5948
LeftUpLeg  -9.00906 5.4946 2.10691
LeftLeg  31.6305 7.99077 5.64109
LeftFoot  -18.4713 -0.75113 -13.818
LeftToes  -3.91115e-011 -2.2622e-010 9.51032e-012
276
root  -5.83382 37.8457 2.75254 -176.626 5.92467 175.582
RightUpLeg  -20.3485 -14.3165 -22.7476
RightLeg  12.2185 -2.1817 -1.09293
RightFoot  16.4395 -6.73626 27.2666
RightToes  -5.8209e-011 0 -3.6325e-017
Spine  13.0583 -1.07196 -7.87492
Spine1  18.6501 -4.58241 6.36927
HEad  -22.571 2.98744 -2.08859
LeftShoulder1  0.814538 -0.189257 -15.2108
LeftArm  14.328 9.01029 -58.1331
LeftForeArm  97.1414 -79.1355 -105.479
LeftHand  -0.891419 -1.6152 14.9154
RightShoulder  0.682491 -0.604142 17.0212
RightArm  -18.122 -5.19521 52.0135
RightForeArm  31.1412 77.6003 71.2667
RightHand  -1.00097 0.9195 -18.4385
LeftUpLeg  -7.94202 4.93139 1.63326
LeftLeg  31.1711 8.90935 6.13674
LeftFoot  -19.9019 -0.856697 -12.9844
LeftToes  -3.91115e-011 -2.2622e-010 9.51032e-012
277
root  -5.92691 38.0068 3.08151 -176.567 5.85934 175.428
RightUpLeg  -19.9305 -14.1563 -22.7431
RightLeg  18.6787 -2.18885 -0.964468
RightFoot  10.4967 -5.54098 28.5369
RightToes  -5.8209e-011 0 -3.6325e-017
Spine  12.7453 -0.889294 -8.6454
Spine1  18.2254 -4.37456 5.93185
HEad  -22.0668 2.5923 -1.54799
LeftShoulder1  0.823163 -0.241911 -15.1254
LeftArm  11.8484 8.28059 -57.8675
LeftForeArm  85.9881 -79.5885 -92.7313
LeftHand  -1.04046 -1.62541 17.307
RightShoulder  0.608596 -0.837396 16.2617
RightArm  -16.2943 -3.22632 52.2349
RightForeArm  28.5339 77.5873 73.3799
RightHand  -1.0621 0.930228 -19.5199
LeftUpLeg  -7.60767 5.26005 1.20488
LeftLeg  29.0562 9.59218 6.08964
LeftFoot  -19.2745 -0.700566 -11.7231
LeftToes  -3.91115e-011 -2.2622e-010 9.51032e-012
278
root  -5.91497 38.3958 3.35392 -175.607 4.76112 175.571
RightUpLeg  -18.6835 -13.9748 -21.8024
RightLeg  22.7252 -0.268474 -0.349737
RightFoot  6.84836 -4.59275 28.4239
RightToes  -5.8209e-011 0 -3.6325e-017
Spine  12.1266 -0.882257 -7.93009
Spine1  17.4844 -3.98228 5.26779
HEad  -21.6054 1.05847 -0.844403
LeftShoulder1  0.779967 -0.0618726 -15.0118
LeftArm  9.78588 8.8157 -58.1548
LeftForeArm  77.3007 -79.5503 -83.7876
LeftHand  -1.28573 -1.65968 21.1766
RightShoulder  0.559149 -0.987998 15.6137
RightArm  -15.0126 -2.07462 52.5833
RightForeArm  26.7688 77.5751 74.7213
RightHand  -0.948569 0.414522 -18.9407
LeftUpLeg  -7.94098 5.18062 1.41126
LeftLeg  25.9431 9.12044 5.16354
LeftFoot  -16.6 -0.432668 -11.581
LeftToes  -3.91115e-011 -2.2622e-010 9.51032e-012
279
root  -5.80927 38.921 3.56284 -174.345 2.95435 175.893
RightUpLeg  -16.211 -12.9914 -20.4468
RightLeg  22.84 -0.334026 -0.358037
RightFoot  5.60828 -4.0863 27.2187
RightToes  -5.8209e-011 0 -3.6325e-017
Spine  11.0725 -0.845184 -6.21595
Spine1  17.2121 -3.32623 4.35464
HEad  -21.2231 -1.14094 0.357032
LeftShoulder1  0.748857 0.0531898 -14.8247
LeftArm  8.0874 10.1769 -58.5684
LeftForeArm  71.7029 -79.3677 -79.9521
LeftHand  -1.5331 -1.77651 24.7548
RightShoulder  0.527403 -1.0701 15.0016
RightArm  -14.0544 -1.66675 53.1672
RightForeArm  25.5404 77.5544 75.1965
RightHand  -0.73351 -0.547842 -17.5358
LeftUpLeg  -8.42546 4.95173 2.11606
LeftLeg  22.3854 7.77362 3.8217
LeftFoot  -12.7288 -0.0685085 -11.6392
LeftToes  -3.91115e-011 -2.2622e-010 9.51032e-012
280
root  -5.60973 39.4481 3.72197 -172.952 0.682297 175.947
RightUpLeg  -13.1533 -12.5785 -19.1938
RightLeg  19.1165 -4.13222 -1.78259
RightFoot  6.29908 -4.1255 26.4344
RightToes  -5.8209e-011 0 -3.6325e-017
Spine  9.80002 -0.631668 -4.68099
Spine1  16.9166 -2.54045 3.62524
HEad  -20.7894 -3.77264 1.99082
LeftShoulder1  0.775339 -0.0586713 -14.8906
LeftArm  6.72779 12.0836 -58.1196
LeftForeArm  69.2953 -79.2534 -80.1657
LeftHand  -1.65664 -1.81295 26.5389
RightShoulder  0.46909 -1.30145 14.6114
RightArm  -12.5065 -1.49111 53.5881
RightForeArm  22.7569 77.4276 73.6383
RightHand  -0.551351 -1.5168 -16.4161
LeftUpLeg  -8.87777 5.5956 2.87914
LeftLeg  18.3149 5.53269 2.11405
LeftFoot  -8.23223 0.368841 -11.6191
LeftToes  -3.91115e-011 -2.2622e-010 9.51032e-012
281
root  -5.38232 39.8031 3.88692 -171.52 -2.23766 175.831
RightUpLeg  -10.5965 -13.8286 -18.2699
RightLeg  14.094 -8.99871 -2.77302
RightFoot  7.84236 -4.41773 26.0493
RightToes  -5.8209e-011 0 -3.6325e-017
Spine  8.94831 -0.491771 -3.29899
Spine1  15.8139 -1.98562 3.31763
HEad  -20.347 -6.6805 3.58429
LeftShoulder1  0.818039 -0.231731 -15.0421
LeftArm  5.86462 14.3812 -56.5804
LeftForeArm  70.8829 -79.2616 -83.5605
LeftHand  -1.62846 -1.70954 26.4532
RightShoulder  0.390066 -1.64461 14.2921
RightArm  -9.79669 -1.20668 53.899
RightForeArm  17.2872 77.068 69.0808
RightHand  -0.469955 -2.01749 -15.9982
LeftUpLeg  -9.99643 6.65516 3.6176
LeftLeg  15.354 1.1466 0.156156
LeftFoot  -4.19068 0.854024 -13.156
LeftToes  -3.91115e-011 -2.2622e-010 9.51032e-012
282
root  -5.21158 39.8819 4.11115 -170.67 -5.76836 176.003
RightUpLeg  -8.93356 -15.2522 -17.7664
RightLeg  11.1486 -11.9044 -2.3462
RightFoot  8.6568 -4.58247 25.9234
RightToes  -5.8209e-011 0 -3.6325e-017
Spine  8.9525 -0.578167 -1.34091
Spine1  14.343 -1.74192 3.1875
HEad  -20.2076 -9.64436 4.81824
LeftShoulder1  0.825467 -0.3052 -14.7933
LeftArm  5.43625 16.4811 -54.9107
LeftForeArm  73.9705 -79.3066 -86.8493
LeftHand  -1.54639 -1.64323 25.3989
RightShoulder  0.334836 -1.86691 13.7472
RightArm  -6.26391 -0.713651 54.4645
RightForeArm  10.6277 76.4092 62.5961
RightHand  -0.49507 -1.95744 -16.5621
LeftUpLeg  -12.364 6.36018 4.5601
LeftLeg  16.161 -3.62444 -1.02151
LeftFoot  -2.66414 1.20378 -15.6517
LeftToes  -3.91115e-011 -2.2622e-010 9.51032e-012
283
root  -5.08656 39.7742 4.38127 -170.882 -8.9686 176.349
RightUpLeg  -7.80063 -15.6314 -17.6931
RightLeg  11.2898 -12.9911 -1.83882
RightFoot  7.8755 -4.51328 26.5482
RightToes  -5.8209e-011 0 -3.6325e-017
Spine  9.58968 -0.465509 0.436209
Spine1  13.7242 -1.33931 2.91565
HEad  -20.7229 -12.4421 5.91706
LeftShoulder1  0.837174 -0.423127 -14.4082
LeftArm  4.97702 17.7459 -53.9993
LeftForeArm  73.5765 -79.3343 -85.347
LeftHand  -1.48332 -1.66372 24.3334
RightShoulder  0.3235 -1.89268 13.3281
RightArm  -2.78441 0.105469 54.9739
RightForeArm  3.6023 75.3453 55.174
RightHand  -0.478619 -2.17678 -17.0791
LeftUpLeg  -14.7837 3.33184 6.01129
LeftLeg  19.3103 -2.96385 -0.784913
LeftFoot  -3.67904 1.08681 -15.7634
LeftToes  -3.91115e-011 -2.2622e-010 9.51032e-012
